<?xml version="1.0" encoding="UTF-8" standalone="no"?>
<!-- Generator: Adobe Illustrator 22.1.0, SVG Export Plug-In . SVG Version: 6.00 Build 0)  -->

<svg
   version="1.1"
   id="Layer_1"
   x="0px"
   y="0px"
   width="192.05"
   height="40.959999"
   viewBox="0 0 192.05 40.96"
   enable-background="new 0 0 250.5 59.87"
   xml:space="preserve"
   sodipodi:docname="University_of_Waterloo_wordmark.svg"
   inkscape:version="1.4.2 (f4327f4, 2025-05-13)"
   xmlns:inkscape="http://www.inkscape.org/namespaces/inkscape"
   xmlns:sodipodi="http://sodipodi.sourceforge.net/DTD/sodipodi-0.dtd"
   xmlns="http://www.w3.org/2000/svg"
   xmlns:svg="http://www.w3.org/2000/svg"><defs
   id="defs5" /><sodipodi:namedview
   id="namedview5"
   pagecolor="#ffffff"
   bordercolor="#000000"
   borderopacity="0.25"
   inkscape:showpageshadow="2"
   inkscape:pageopacity="0.0"
   inkscape:pagecheckerboard="0"
   inkscape:deskcolor="#d1d1d1"
   inkscape:zoom="4.8223553"
   inkscape:cx="109.38638"
   inkscape:cy="60.655008"
   inkscape:window-width="2560"
   inkscape:window-height="1369"
   inkscape:window-x="-8"
   inkscape:window-y="-8"
   inkscape:window-maximized="1"
   inkscape:current-layer="Layer_1" />
<path
   d="m 0,17.58 h 5.39 l 4.72,15.45 5.12,-15.52 h 4.3 l 5.12,15.52 4.73,-15.45 h 5.25 l -7.8,22.99 H 22.47 L 17.32,25.64 12.16,40.57 H 7.8 Z m 32.8,22.99 h 5.12 l 2.09,-5.12 h 9.65 l 2.09,5.12 H 57 L 47.22,17.58 h -4.63 z m 9.01,-9.56 3.03,-7.4 3.03,7.4 z m 20.66,9.56 h 5.03 v -18.2 h 6.94 V 17.74 H 55.52 v 4.63 h 6.94 v 18.2 z m 15.8,0 H 95.65 V 36.1 H 83.26 V 31.31 H 94.02 V 26.84 H 83.26 V 22.21 H 95.49 V 17.75 H 78.27 Z m 22.78,0 h 5.03 v -7.3 h 3.94 l 4.89,7.3 h 5.87 l -5.57,-8.15 c 2.9,-1.07 4.89,-3.39 4.89,-7.08 v -0.07 c 0,-2.15 -0.69,-3.94 -1.96,-5.21 -1.5,-1.5 -3.75,-2.32 -6.65,-2.32 h -10.44 z m 5.02,-11.74 v -6.55 h 4.99 c 2.44,0 3.95,1.11 3.95,3.26 v 0.07 c 0,1.92 -1.4,3.23 -3.85,3.23 h -5.09 z m 19.56,11.74 h 15.71 V 36 H 130.65 V 17.74 h -5.02 z m 16.48,-11.35 c 0,6.49 5.06,11.74 12.1,11.74 7.04,0 12.16,-5.31 12.16,-11.81 v -0.06 c 0,-6.49 -5.06,-11.74 -12.1,-11.74 -7.05,0 -12.17,5.32 -12.17,11.81 v 0.06 m 19.03,0 c 0,3.92 -2.8,7.11 -6.84,7.11 -4.05,0 -6.92,-3.26 -6.92,-7.18 v -0.06 c 0,-3.91 2.8,-7.11 6.85,-7.11 4.04,0 6.91,3.27 6.91,7.17 v 0.07 m 6.66,0 c 0,6.49 5.05,11.74 12.1,11.74 7.04,0 12.16,-5.31 12.16,-11.81 v -0.06 c 0,-6.49 -5.05,-11.74 -12.1,-11.74 -7.04,0 -12.16,5.32 -12.16,11.81 v 0.06 m 19.01,0 c 0,3.92 -2.81,7.11 -6.85,7.11 -4.04,0 -6.91,-3.26 -6.91,-7.18 v -0.06 c 0,-3.91 2.81,-7.11 6.85,-7.11 4.05,0 6.92,3.27 6.92,7.17 v 0.07 M 12.75,6.19 c 0,3.09 1.73,4.67 4.55,4.67 2.82,0 4.61,-1.56 4.61,-4.75 V 0.18 H 19.6 v 6.03 c 0,1.67 -0.86,2.52 -2.27,2.52 -1.41,0 -2.27,-0.89 -2.27,-2.6 V 0.18 h -2.31 v 6.01 m 15.32,4.51 h 2.28 V 4.01 l 5.09,6.68 h 1.97 V 0.18 H 35.13 V 6.66 L 30.2,0.18 h -2.13 z m 15.92,0 H 46.3 V 0.18 h -2.31 z m 12.25,0.07 h 2.04 L 62.53,0.18 H 60.04 L 57.29,7.59 54.54,0.18 H 51.99 Z M 68.11,10.7 h 8.01 V 8.64 H 70.41 V 6.43 h 4.96 V 4.37 H 70.41 V 2.24 h 5.63 V 0.18 H 68.11 Z M 84.44,5.29 V 2.27 h 2.3 c 1.13,0 1.82,0.51 1.82,1.5 V 3.8 c 0,0.89 -0.65,1.49 -1.77,1.49 z m -2.31,5.41 h 2.31 V 7.33 h 1.82 l 2.25,3.37 h 2.71 L 88.65,6.95 C 89.99,6.45 90.9,5.39 90.9,3.69 V 3.65 C 90.9,2.66 90.58,1.83 90,1.25 89.31,0.56 88.27,0.18 86.93,0.18 H 82.12 V 10.7 Z M 96.22,9.17 c 1.26,1.13 2.87,1.68 4.46,1.68 2.27,0 3.86,-1.17 3.86,-3.26 V 7.56 c 0,-1.83 -1.2,-2.6 -3.33,-3.16 C 99.39,3.93 98.94,3.71 98.94,3.02 V 2.99 c 0,-0.51 0.47,-0.92 1.35,-0.92 0.89,0 1.8,0.39 2.73,1.04 l 1.2,-1.74 c -1.07,-0.86 -2.37,-1.34 -3.91,-1.34 -2.15,0 -3.68,1.26 -3.68,3.17 v 0.03 c 0,2.09 1.37,2.67 3.49,3.22 1.76,0.45 2.12,0.75 2.12,1.34 v 0.03 c 0,0.61 -0.57,0.99 -1.52,0.99 -1.2,0 -2.19,-0.5 -3.14,-1.28 l -1.36,1.64 m 14.39,1.53 h 2.31 V 0.18 h -2.31 z m 11.34,0 h 2.31 V 2.32 h 3.2 V 0.18 h -8.71 v 2.13 h 3.2 z m 14.2,0 h 2.31 V 6.51 l 4.04,-6.33 h -2.63 l -2.55,4.22 -2.51,-4.22 h -2.7 l 4.04,6.37 z m 28.26,-5.23 c 0,1.8 -1.29,3.28 -3.15,3.28 -1.86,0 -3.19,-1.5 -3.19,-3.31 V 5.41 c 0,-1.8 1.29,-3.28 3.16,-3.28 1.86,0 3.19,1.5 3.19,3.31 v 0.03 m -8.76,0 c 0,2.99 2.33,5.41 5.57,5.41 3.25,0 5.6,-2.45 5.6,-5.44 V 5.41 C 166.83,2.42 164.5,0 161.26,0 c -3.24,0 -5.6,2.45 -5.6,5.44 v 0.03 m 16.14,5.23 h 2.31 V 6.63 h 5.02 v -2.1 h -5.02 V 2.29 h 5.69 v -2.1 h -8 z"
   id="path1" />

</svg>
